<svg version="1.1" id="Layer_1" xmlns="http://www.w3.org/2000/svg" xmlns:xlink="http://www.w3.org/1999/xlink" x="0px" y="0px"
	 width="100%" viewBox="0 0 512 512" enable-background="new 0 0 512 512" xml:space="preserve">
<path fill="#000000" opacity="1.000000" stroke="none" 
	d="
M513.000000,178.000000 
	C513.000000,289.972778 513.000000,401.445557 513.000000,512.959167 
	C342.402222,512.959167 171.804413,512.959167 1.103307,512.959167 
	C1.103307,342.443909 1.103307,171.887756 1.103307,1.165792 
	C171.666534,1.165792 342.333252,1.165792 513.000000,1.165792 
	C513.000000,59.862217 513.000000,118.681107 513.000000,178.000000 
M163.749313,444.090027 
	C181.044327,435.966736 200.156067,441.862488 211.462189,453.862854 
	C219.435928,462.326202 222.866318,472.454407 222.908386,483.698517 
	C222.949234,494.619476 234.705154,504.485657 243.419876,504.150024 
	C258.229736,503.579651 273.109039,503.389526 287.900574,504.161774 
	C302.998688,504.950043 312.208679,493.577911 312.042908,480.058441 
	C311.909424,469.169739 316.425690,459.707489 324.144409,452.624512 
	C341.759796,436.460022 365.342804,435.808075 383.062378,452.594940 
	C392.470703,461.508026 405.803986,461.569611 415.104797,452.363800 
	C425.646057,441.930237 436.125977,431.434113 446.569122,420.902252 
	C454.665405,412.737122 454.678925,398.745087 446.837952,390.296936 
	C444.372284,387.640289 441.885895,384.889435 440.012756,381.813965 
	C423.568451,354.814117 441.940308,318.714233 475.997040,318.186890 
	C487.894623,318.002655 498.013702,308.103363 497.994781,296.043854 
	C497.985382,290.044464 497.997498,284.045074 497.994843,278.045685 
	C497.990417,267.914307 496.047394,266.009247 485.660767,266.006256 
	C462.829712,265.999634 439.998688,266.003296 417.167633,266.004303 
	C404.002289,266.004883 390.836670,265.956299 377.671783,266.034760 
	C371.968536,266.068756 369.274323,268.951416 368.983643,274.635742 
	C368.815002,277.933441 368.350830,281.215515 368.038330,284.506378 
	C365.822052,307.844940 355.952148,327.649414 339.954468,344.484100 
	C330.503876,354.429199 319.240845,361.816986 306.595795,367.242188 
	C287.559631,375.409424 267.875702,377.168945 247.721756,373.315704 
	C226.071915,369.176453 207.879913,358.614716 192.900589,342.434387 
	C176.022339,324.202911 166.883591,302.751648 166.039413,277.905060 
	C165.733353,268.896301 163.126709,265.945435 154.156677,266.018982 
	C117.537529,266.319153 80.918770,266.668152 44.300037,267.016510 
	C38.911446,267.067749 37.068283,268.852936 37.024376,274.130341 
	C36.964764,281.295807 37.005299,288.462097 37.006676,295.628052 
	C37.009270,309.118164 45.402180,317.644897 58.827065,318.049683 
	C62.111755,318.148712 65.454994,318.589355 68.638786,319.396027 
	C98.207207,326.887878 111.900841,364.056885 89.666962,387.862976 
	C78.892319,399.399536 79.600037,413.559418 90.613647,423.343567 
	C100.687653,432.293060 109.814819,442.308228 119.361916,451.851105 
	C128.237228,460.722473 138.589325,461.698395 149.003983,454.534729 
	C153.758255,451.264526 158.388306,447.813690 163.749313,444.090027 
M207.788605,69.018631 
	C217.578171,68.656303 227.374603,68.422958 237.155762,67.902672 
	C253.527542,67.031822 269.884155,65.853729 286.261871,65.142883 
	C288.560150,65.043129 290.989227,66.750938 293.273926,67.803978 
	C297.579254,69.788353 301.647614,72.668343 306.153137,73.707024 
	C309.317963,74.436630 310.344330,75.856201 310.847870,78.327110 
	C311.704956,82.532692 312.039185,86.862877 313.140259,90.994904 
	C314.006439,94.245285 314.813629,98.641701 317.173950,100.168594 
	C327.573059,106.895676 338.444214,112.915977 349.321014,118.869522 
	C353.236389,121.012650 357.259735,119.477478 359.002289,115.789795 
	C360.819366,111.944397 360.602997,108.322380 356.609070,105.862213 
	C352.528748,103.348862 348.406342,100.885422 344.176117,98.637703 
	C334.633728,93.567390 324.979980,88.915001 325.463928,75.449242 
	C325.571014,72.468994 325.577820,70.679001 328.129272,68.885666 
	C334.092621,64.694214 338.536682,58.736683 338.592651,51.600628 
	C338.644501,44.983555 342.240509,43.534504 346.977936,42.102413 
	C348.086761,41.767223 349.252655,41.531376 350.276062,41.018097 
	C355.401489,38.447479 359.741394,39.466785 364.545380,42.584743 
	C371.720062,47.241375 379.365997,51.237720 387.066437,54.992008 
	C391.197357,57.006016 394.672333,55.264133 396.265015,51.226658 
	C397.857025,47.190975 397.108429,43.818623 393.026184,41.503952 
	C387.555145,38.401855 382.191223,35.111530 376.741699,31.970766 
	C358.906281,21.691570 358.806030,21.464079 341.641113,28.156118 
	C336.658234,30.098772 333.757782,29.425426 329.988708,25.725321 
	C320.845764,16.749659 305.648987,15.665013 295.791931,23.093794 
	C290.948212,26.744255 286.298950,28.575937 280.366241,28.048777 
	C273.931183,27.476980 267.458221,27.345367 261.007019,26.938639 
	C240.514481,25.646650 220.018494,24.395967 199.541275,22.891903 
	C197.166321,22.717461 194.435318,21.576832 192.661224,19.995676 
	C182.474045,10.916491 170.777206,8.228570 157.570801,10.701442 
	C140.231827,13.948127 127.296516,31.979149 129.754318,50.070629 
	C130.160629,53.061413 128.609009,56.933651 126.736023,59.505547 
	C120.620300,67.903389 113.898354,75.857544 107.480988,84.038361 
	C94.418686,100.690109 81.507294,117.461571 68.314896,134.009247 
	C63.300797,140.298630 58.343410,146.912643 52.190517,151.949997 
	C42.684608,159.732483 37.124989,168.912567 37.013107,181.227219 
	C36.949524,188.225754 36.918098,195.226440 37.026615,202.223755 
	C37.069767,205.006226 36.018871,206.225616 33.224922,206.007889 
	C31.900251,205.904663 30.559799,205.983978 29.226999,206.008224 
	C21.480371,206.149216 16.085279,211.477539 16.014992,219.144089 
	C15.959994,225.142792 15.933537,231.143509 16.024637,237.141357 
	C16.136671,244.517624 21.612217,249.969910 28.992085,249.979492 
	C58.654831,250.017990 88.317696,250.020767 117.980431,249.977188 
	C125.440598,249.966232 130.841431,244.662445 130.968979,237.294556 
	C131.075684,231.130554 131.069199,224.962006 130.972458,218.797699 
	C130.856354,211.398834 125.493073,206.172958 118.013725,206.009399 
	C116.514519,205.976608 115.009392,205.909576 113.515640,206.000443 
	C110.944061,206.156876 110.148636,204.987869 109.955818,202.469711 
	C109.217216,192.823502 110.873474,184.109634 116.036781,175.502243 
	C132.380890,148.256042 148.119141,120.644470 163.918198,93.074783 
	C167.286880,87.196381 170.530655,81.799187 178.274170,81.227547 
	C180.459396,81.066223 182.998672,80.013977 184.592209,78.529465 
	C190.783997,72.761299 197.562622,68.714500 206.353668,69.114853 
	C206.517868,69.122337 206.684418,69.078438 207.788605,69.018631 
M285.296173,341.970490 
	C291.052124,339.566833 297.159149,337.766083 302.502869,334.654449 
	C324.855682,321.638733 336.046326,301.602203 337.946930,276.115173 
	C338.445526,269.428650 335.374084,266.157257 328.610931,266.042847 
	C320.116669,265.899170 311.618225,266.000671 303.121582,265.999268 
	C292.068848,265.997498 292.068848,265.998749 291.997650,255.070572 
	C291.885620,237.876434 273.128265,225.962250 257.582214,233.189102 
	C246.309647,238.429337 241.649048,247.661728 242.094635,259.612549 
	C242.276321,264.485321 241.117661,266.365265 235.824326,266.127869 
	C225.848434,265.680481 215.837799,265.964081 205.842087,266.022339 
	C201.493744,266.047668 197.790237,267.520935 197.131088,272.325989 
	C196.660522,275.756317 196.572418,279.398407 197.180252,282.790710 
	C200.430176,300.928253 207.961060,316.632019 222.814407,328.427063 
	C241.242554,343.060791 261.817322,346.997559 285.296173,341.970490 
M247.728348,147.052734 
	C266.903290,143.056015 285.553833,145.193466 303.731506,152.066406 
	C316.587646,156.927292 327.821869,164.357986 337.601410,174.037231 
	C341.268250,177.666443 346.389282,178.011612 349.187683,175.134293 
	C351.862671,172.383865 351.744720,166.554520 348.657959,163.263794 
	C346.742432,161.221695 344.384979,159.599167 342.269165,157.739105 
	C321.208588,139.224518 296.216644,130.539902 268.618866,130.299530 
	C256.885773,130.197357 244.845306,132.314072 233.438705,135.306259 
	C214.872726,140.176544 198.791611,150.053802 185.478455,164.074814 
	C182.154694,167.575287 182.223907,171.664017 185.289749,174.722397 
	C188.355255,177.780472 192.292358,177.704346 195.960785,174.534363 
	C199.218491,171.719299 202.368759,168.762726 205.776047,166.141006 
	C218.028702,156.713257 231.822113,150.553421 247.728348,147.052734 
M228.512177,191.980682 
	C247.839355,178.836273 268.640228,175.106140 290.509094,184.052689 
	C298.755310,187.426193 306.130463,193.101959 313.564178,198.219894 
	C317.656403,201.037292 322.584595,201.949081 325.270660,199.121170 
	C327.978973,196.269852 327.448792,191.000229 324.066956,187.590958 
	C322.308594,185.818344 320.626801,183.928970 318.669647,182.400711 
	C298.614227,166.740265 276.019836,161.463348 251.048370,166.026352 
	C235.118805,168.937119 221.618317,176.523346 210.011002,187.583755 
	C206.255737,191.162064 206.171356,195.481857 209.179245,198.613022 
	C212.254150,201.813980 217.105423,201.825943 220.828766,198.623901 
	C223.213364,196.573151 225.578476,194.499725 228.512177,191.980682 
M236.967102,224.953491 
	C239.556915,224.222046 242.956009,224.289795 244.600311,222.624680 
	C252.955612,214.163559 271.709198,210.306946 282.371826,217.813507 
	C285.327942,219.894638 288.314453,221.942917 291.384705,223.848892 
	C294.936615,226.053833 298.722565,225.676132 301.384094,222.780945 
	C303.957764,219.981369 303.795013,216.151306 301.372284,213.135559 
	C299.644135,210.984451 297.280121,209.306030 295.065796,207.589691 
	C277.864075,194.256683 250.050507,196.153992 234.847275,211.655609 
	C229.755386,216.847443 230.130005,220.613937 236.967102,224.953491 
z"/>
<path fill="#204672" opacity="1.000000" stroke="none" 
	d="
M163.412018,444.267395 
	C158.388306,447.813690 153.758255,451.264526 149.003983,454.534729 
	C138.589325,461.698395 128.237228,460.722473 119.361916,451.851105 
	C109.814819,442.308228 100.687653,432.293060 90.613647,423.343567 
	C79.600037,413.559418 78.892319,399.399536 89.666962,387.862976 
	C111.900841,364.056885 98.207207,326.887878 68.638786,319.396027 
	C65.454994,318.589355 62.111755,318.148712 58.827065,318.049683 
	C45.402180,317.644897 37.009270,309.118164 37.006676,295.628052 
	C37.005299,288.462097 36.964764,281.295807 37.024376,274.130341 
	C37.068283,268.852936 38.911446,267.067749 44.300037,267.016510 
	C80.918770,266.668152 117.537529,266.319153 154.156677,266.018982 
	C163.126709,265.945435 165.733353,268.896301 166.039413,277.905060 
	C166.883591,302.751648 176.022339,324.202911 192.900589,342.434387 
	C207.879913,358.614716 226.071915,369.176453 247.721756,373.315704 
	C267.875702,377.168945 287.559631,375.409424 306.595795,367.242188 
	C319.240845,361.816986 330.503876,354.429199 339.954468,344.484100 
	C355.952148,327.649414 365.822052,307.844940 368.038330,284.506378 
	C368.350830,281.215515 368.815002,277.933441 368.983643,274.635742 
	C369.274323,268.951416 371.968536,266.068756 377.671783,266.034760 
	C390.836670,265.956299 404.002289,266.004883 417.167633,266.004303 
	C439.998688,266.003296 462.829712,265.999634 485.660767,266.006256 
	C496.047394,266.009247 497.990417,267.914307 497.994843,278.045685 
	C497.997498,284.045074 497.985382,290.044464 497.994781,296.043854 
	C498.013702,308.103363 487.894623,318.002655 475.997040,318.186890 
	C441.940308,318.714233 423.568451,354.814117 440.012756,381.813965 
	C441.885895,384.889435 444.372284,387.640289 446.837952,390.296936 
	C454.678925,398.745087 454.665405,412.737122 446.569122,420.902252 
	C436.125977,431.434113 425.646057,441.930237 415.104797,452.363800 
	C405.803986,461.569611 392.470703,461.508026 383.062378,452.594940 
	C365.342804,435.808075 341.759796,436.460022 324.144409,452.624512 
	C316.425690,459.707489 311.909424,469.169739 312.042908,480.058441 
	C312.208679,493.577911 302.998688,504.950043 287.900574,504.161774 
	C273.109039,503.389526 258.229736,503.579651 243.419876,504.150024 
	C234.705154,504.485657 222.949234,494.619476 222.908386,483.698517 
	C222.866318,472.454407 219.435928,462.326202 211.462189,453.862854 
	C200.156067,441.862488 181.044327,435.966736 163.412018,444.267395 
M436.725403,409.878510 
	C439.748749,405.021606 437.279602,401.550873 434.060974,397.945404 
	C411.109039,372.234680 415.763489,332.695465 443.964783,313.465515 
	C452.843445,307.411316 462.685394,304.141327 473.465759,303.917023 
	C477.730164,303.828308 482.167023,303.053131 482.844574,298.320526 
	C483.646759,292.717224 483.033020,286.911224 483.033020,281.224487 
	C449.493286,281.224487 416.422180,281.224487 383.382477,281.224487 
	C378.268066,342.431641 330.469971,386.318115 274.051361,389.663177 
	C248.129639,391.200073 224.123322,384.737946 202.655548,370.050751 
	C171.440826,348.695190 154.752274,318.664124 151.214844,281.365356 
	C117.603729,281.365356 84.399078,281.365356 51.021984,281.365356 
	C51.021984,285.346466 51.018761,288.841705 51.022617,292.336975 
	C51.032673,301.452606 53.038387,303.457184 61.985432,303.979187 
	C65.618568,304.191162 69.299065,304.664459 72.820107,305.560669 
	C113.984352,316.038116 128.905945,366.680664 100.203293,398.312622 
	C94.996658,404.050629 95.028763,407.314392 100.460167,412.766968 
	C109.866539,422.210144 119.280716,431.645813 128.742828,441.033020 
	C133.572845,445.824799 137.102661,445.900330 142.125946,441.401459 
	C160.127731,425.278870 180.631927,421.230530 202.804535,430.567078 
	C224.593323,439.741974 235.987732,456.911041 237.151581,480.675934 
	C237.480255,487.387451 240.146652,489.964752 246.827148,489.985138 
	C260.322388,490.026337 273.817871,490.019012 287.313141,489.988770 
	C294.476074,489.972717 296.841858,487.710663 297.217529,480.542725 
	C297.881805,467.867554 301.749359,456.394592 309.925140,446.543671 
	C330.625092,421.602539 367.203918,418.894897 391.424072,440.491699 
	C397.794281,446.171936 400.664612,446.138214 406.603333,440.194458 
	C416.494293,430.295135 426.355042,420.365662 436.725403,409.878510 
z"/>
<path fill="#1F4671" opacity="1.000000" stroke="none" 
	d="
M207.319244,69.038574 
	C206.684418,69.078438 206.517868,69.122337 206.353668,69.114853 
	C197.562622,68.714500 190.783997,72.761299 184.592209,78.529465 
	C182.998672,80.013977 180.459396,81.066223 178.274170,81.227547 
	C170.530655,81.799187 167.286880,87.196381 163.918198,93.074783 
	C148.119141,120.644470 132.380890,148.256042 116.036781,175.502243 
	C110.873474,184.109634 109.217216,192.823502 109.955818,202.469711 
	C110.148636,204.987869 110.944061,206.156876 113.515640,206.000443 
	C115.009392,205.909576 116.514519,205.976608 118.013725,206.009399 
	C125.493073,206.172958 130.856354,211.398834 130.972458,218.797699 
	C131.069199,224.962006 131.075684,231.130554 130.968979,237.294556 
	C130.841431,244.662445 125.440598,249.966232 117.980431,249.977188 
	C88.317696,250.020767 58.654831,250.017990 28.992085,249.979492 
	C21.612217,249.969910 16.136671,244.517624 16.024637,237.141357 
	C15.933537,231.143509 15.959994,225.142792 16.014992,219.144089 
	C16.085279,211.477539 21.480371,206.149216 29.226999,206.008224 
	C30.559799,205.983978 31.900251,205.904663 33.224922,206.007889 
	C36.018871,206.225616 37.069767,205.006226 37.026615,202.223755 
	C36.918098,195.226440 36.949524,188.225754 37.013107,181.227219 
	C37.124989,168.912567 42.684608,159.732483 52.190517,151.949997 
	C58.343410,146.912643 63.300797,140.298630 68.314896,134.009247 
	C81.507294,117.461571 94.418686,100.690109 107.480988,84.038361 
	C113.898354,75.857544 120.620300,67.903389 126.736023,59.505547 
	C128.609009,56.933651 130.160629,53.061413 129.754318,50.070629 
	C127.296516,31.979149 140.231827,13.948127 157.570801,10.701442 
	C170.777206,8.228570 182.474045,10.916491 192.661224,19.995676 
	C194.435318,21.576832 197.166321,22.717461 199.541275,22.891903 
	C220.018494,24.395967 240.514481,25.646650 261.007019,26.938639 
	C267.458221,27.345367 273.931183,27.476980 280.366241,28.048777 
	C286.298950,28.575937 290.948212,26.744255 295.791931,23.093794 
	C305.648987,15.665013 320.845764,16.749659 329.988708,25.725321 
	C333.757782,29.425426 336.658234,30.098772 341.641113,28.156118 
	C358.806030,21.464079 358.906281,21.691570 376.741699,31.970766 
	C382.191223,35.111530 387.555145,38.401855 393.026184,41.503952 
	C397.108429,43.818623 397.857025,47.190975 396.265015,51.226658 
	C394.672333,55.264133 391.197357,57.006016 387.066437,54.992008 
	C379.365997,51.237720 371.720062,47.241375 364.545380,42.584743 
	C359.741394,39.466785 355.401489,38.447479 350.276062,41.018097 
	C349.252655,41.531376 348.086761,41.767223 346.977936,42.102413 
	C342.240509,43.534504 338.644501,44.983555 338.592651,51.600628 
	C338.536682,58.736683 334.092621,64.694214 328.129272,68.885666 
	C325.577820,70.679001 325.571014,72.468994 325.463928,75.449242 
	C324.979980,88.915001 334.633728,93.567390 344.176117,98.637703 
	C348.406342,100.885422 352.528748,103.348862 356.609070,105.862213 
	C360.602997,108.322380 360.819366,111.944397 359.002289,115.789795 
	C357.259735,119.477478 353.236389,121.012650 349.321014,118.869522 
	C338.444214,112.915977 327.573059,106.895676 317.173950,100.168594 
	C314.813629,98.641701 314.006439,94.245285 313.140259,90.994904 
	C312.039185,86.862877 311.704956,82.532692 310.847870,78.327110 
	C310.344330,75.856201 309.317963,74.436630 306.153137,73.707024 
	C301.647614,72.668343 297.579254,69.788353 293.273926,67.803978 
	C290.989227,66.750938 288.560150,65.043129 286.261871,65.142883 
	C269.884155,65.853729 253.527542,67.031822 237.155762,67.902672 
	C227.374603,68.422958 217.578171,68.656303 207.319244,69.038574 
M87.094925,133.587860 
	C84.042763,137.508667 80.990608,141.429489 77.522614,145.884476 
	C89.807312,148.038834 99.064713,153.952194 105.648529,164.911621 
	C122.029800,136.638062 138.074005,108.946274 153.884399,81.658043 
	C148.077209,77.548935 142.746399,73.776909 137.233490,69.876022 
	C120.688866,90.904167 104.115509,111.968834 87.094925,133.587860 
M79.093903,161.142441 
	C65.541573,158.523743 52.582447,167.497375 52.066425,180.116058 
	C51.767864,187.416992 52.114552,194.742218 51.961624,202.052139 
	C51.896797,205.150909 53.161427,206.060867 56.091381,206.034744 
	C67.724968,205.931030 79.361320,205.895020 90.993744,206.050720 
	C94.462593,206.097153 95.189262,204.524780 95.124039,201.517914 
	C94.983498,195.038834 94.622734,188.520645 95.140549,182.081863 
	C95.848244,173.282104 88.790260,164.050812 79.093903,161.142441 
M148.968964,59.415924 
	C153.951584,65.372017 160.100464,68.453140 168.088745,68.059837 
	C178.205902,67.561737 187.136673,58.760502 188.005920,48.134224 
	C189.005417,35.916046 180.600677,27.258104 171.441147,25.222399 
	C161.538406,23.021517 152.983017,26.342978 147.595581,35.174599 
	C142.816727,43.008591 143.068649,51.163395 148.968964,59.415924 
M78.500000,235.001999 
	C89.321159,235.001038 100.145325,234.853943 110.961884,235.076538 
	C114.869179,235.156937 116.553261,233.938766 116.018356,229.989273 
	C115.885521,229.008484 115.869019,227.973602 116.022644,226.998825 
	C116.788780,222.137726 114.739632,220.843567 109.951675,220.891785 
	C86.480438,221.128235 63.005367,220.952194 39.531940,221.021042 
	C30.001268,221.048996 31.320257,219.701294 30.906105,229.499954 
	C30.717802,233.955124 32.186352,235.178665 36.547817,235.095901 
	C50.194221,234.836914 63.848671,235.001526 78.500000,235.001999 
M210.366150,54.778679 
	C234.769867,53.289555 259.173584,51.800434 283.589630,50.310558 
	C283.589630,47.512157 283.589630,45.122433 283.589630,42.432178 
	C256.296783,40.837765 229.322418,39.261959 201.967117,37.663902 
	C202.254074,41.145241 202.639526,43.764305 202.639297,46.383331 
	C202.639084,49.134834 202.269485,51.886311 202.046555,54.832935 
	C204.829926,54.832935 207.125885,54.832935 210.366150,54.778679 
M301.994629,37.509640 
	C296.808777,43.985989 296.889374,50.889561 302.206726,55.680183 
	C307.399109,60.358215 315.267792,60.244469 320.151184,55.420784 
	C325.208344,50.425457 325.550629,43.103409 320.963867,38.035488 
	C315.903656,32.444466 308.727203,32.034653 301.994629,37.509640 
z"/>
<path fill="#1F4571" opacity="1.000000" stroke="none" 
	d="
M284.879700,342.014557 
	C261.817322,346.997559 241.242554,343.060791 222.814407,328.427063 
	C207.961060,316.632019 200.430176,300.928253 197.180252,282.790710 
	C196.572418,279.398407 196.660522,275.756317 197.131088,272.325989 
	C197.790237,267.520935 201.493744,266.047668 205.842087,266.022339 
	C215.837799,265.964081 225.848434,265.680481 235.824326,266.127869 
	C241.117661,266.365265 242.276321,264.485321 242.094635,259.612549 
	C241.649048,247.661728 246.309647,238.429337 257.582214,233.189102 
	C273.128265,225.962250 291.885620,237.876434 291.997650,255.070572 
	C292.068848,265.998749 292.068848,265.997498 303.121582,265.999268 
	C311.618225,266.000671 320.116669,265.899170 328.610931,266.042847 
	C335.374084,266.157257 338.445526,269.428650 337.946930,276.115173 
	C336.046326,301.602203 324.855682,321.638733 302.502869,334.654449 
	C297.159149,337.766083 291.052124,339.566833 284.879700,342.014557 
M281.562958,327.199585 
	C306.776855,320.742096 321.875671,296.320404 321.191193,281.283508 
	C285.162994,281.283508 249.124603,281.283508 213.090546,281.283508 
	C212.919846,293.321777 222.852448,310.007050 234.193771,318.173065 
	C248.404633,328.405334 263.924988,331.180206 281.562958,327.199585 
M261.681061,266.891327 
	C266.929260,266.891327 272.177460,266.891327 277.620880,266.891327 
	C277.620880,262.261658 278.065674,258.257629 277.514954,254.395554 
	C276.721771,248.833420 271.988403,245.506546 266.438812,245.861298 
	C261.203522,246.195923 257.291016,250.076248 256.901184,255.528488 
	C256.712219,258.171265 256.973145,260.846985 256.769409,263.487671 
	C256.529297,266.600372 258.211670,267.149200 261.681061,266.891327 
z"/>
<path fill="#1F4571" opacity="1.000000" stroke="none" 
	d="
M247.304718,147.111633 
	C231.822113,150.553421 218.028702,156.713257 205.776047,166.141006 
	C202.368759,168.762726 199.218491,171.719299 195.960785,174.534363 
	C192.292358,177.704346 188.355255,177.780472 185.289749,174.722397 
	C182.223907,171.664017 182.154694,167.575287 185.478455,164.074814 
	C198.791611,150.053802 214.872726,140.176544 233.438705,135.306259 
	C244.845306,132.314072 256.885773,130.197357 268.618866,130.299530 
	C296.216644,130.539902 321.208588,139.224518 342.269165,157.739105 
	C344.384979,159.599167 346.742432,161.221695 348.657959,163.263794 
	C351.744720,166.554520 351.862671,172.383865 349.187683,175.134293 
	C346.389282,178.011612 341.268250,177.666443 337.601410,174.037231 
	C327.821869,164.357986 316.587646,156.927292 303.731506,152.066406 
	C285.553833,145.193466 266.903290,143.056015 247.304718,147.111633 
z"/>
<path fill="#1F4571" opacity="1.000000" stroke="none" 
	d="
M228.232239,192.208572 
	C225.578476,194.499725 223.213364,196.573151 220.828766,198.623901 
	C217.105423,201.825943 212.254150,201.813980 209.179245,198.613022 
	C206.171356,195.481857 206.255737,191.162064 210.011002,187.583755 
	C221.618317,176.523346 235.118805,168.937119 251.048370,166.026352 
	C276.019836,161.463348 298.614227,166.740265 318.669647,182.400711 
	C320.626801,183.928970 322.308594,185.818344 324.066956,187.590958 
	C327.448792,191.000229 327.978973,196.269852 325.270660,199.121170 
	C322.584595,201.949081 317.656403,201.037292 313.564178,198.219894 
	C306.130463,193.101959 298.755310,187.426193 290.509094,184.052689 
	C268.640228,175.106140 247.839355,178.836273 228.232239,192.208572 
z"/>
<path fill="#1F4571" opacity="1.000000" stroke="none" 
	d="
M236.564331,224.911362 
	C230.130005,220.613937 229.755386,216.847443 234.847275,211.655609 
	C250.050507,196.153992 277.864075,194.256683 295.065796,207.589691 
	C297.280121,209.306030 299.644135,210.984451 301.372284,213.135559 
	C303.795013,216.151306 303.957764,219.981369 301.384094,222.780945 
	C298.722565,225.676132 294.936615,226.053833 291.384705,223.848892 
	C288.314453,221.942917 285.327942,219.894638 282.371826,217.813507 
	C271.709198,210.306946 252.955612,214.163559 244.600311,222.624680 
	C242.956009,224.289795 239.556915,224.222046 236.564331,224.911362 
z"/>
<path fill="#A4D3FE" opacity="1.000000" stroke="none" 
	d="
M436.476929,410.163696 
	C426.355042,420.365662 416.494293,430.295135 406.603333,440.194458 
	C400.664612,446.138214 397.794281,446.171936 391.424072,440.491699 
	C367.203918,418.894897 330.625092,421.602539 309.925140,446.543671 
	C301.749359,456.394592 297.881805,467.867554 297.217529,480.542725 
	C296.841858,487.710663 294.476074,489.972717 287.313141,489.988770 
	C273.817871,490.019012 260.322388,490.026337 246.827148,489.985138 
	C240.146652,489.964752 237.480255,487.387451 237.151581,480.675934 
	C235.987732,456.911041 224.593323,439.741974 202.804535,430.567078 
	C180.631927,421.230530 160.127731,425.278870 142.125946,441.401459 
	C137.102661,445.900330 133.572845,445.824799 128.742828,441.033020 
	C119.280716,431.645813 109.866539,422.210144 100.460167,412.766968 
	C95.028763,407.314392 94.996658,404.050629 100.203293,398.312622 
	C128.905945,366.680664 113.984352,316.038116 72.820107,305.560669 
	C69.299065,304.664459 65.618568,304.191162 61.985432,303.979187 
	C53.038387,303.457184 51.032673,301.452606 51.022617,292.336975 
	C51.018761,288.841705 51.021984,285.346466 51.021984,281.365356 
	C84.399078,281.365356 117.603729,281.365356 151.214844,281.365356 
	C154.752274,318.664124 171.440826,348.695190 202.655548,370.050751 
	C224.123322,384.737946 248.129639,391.200073 274.051361,389.663177 
	C330.469971,386.318115 378.268066,342.431641 383.382477,281.224487 
	C416.422180,281.224487 449.493286,281.224487 483.033020,281.224487 
	C483.033020,286.911224 483.646759,292.717224 482.844574,298.320526 
	C482.167023,303.053131 477.730164,303.828308 473.465759,303.917023 
	C462.685394,304.141327 452.843445,307.411316 443.964783,313.465515 
	C415.763489,332.695465 411.109039,372.234680 434.060974,397.945404 
	C437.279602,401.550873 439.748749,405.021606 436.476929,410.163696 
z"/>
<path fill="#A2D2FD" opacity="1.000000" stroke="none" 
	d="
M87.318535,133.310684 
	C104.115509,111.968834 120.688866,90.904167 137.233490,69.876022 
	C142.746399,73.776909 148.077209,77.548935 153.884399,81.658043 
	C138.074005,108.946274 122.029800,136.638062 105.648529,164.911621 
	C99.064713,153.952194 89.807312,148.038834 77.522614,145.884476 
	C80.990608,141.429489 84.042763,137.508667 87.318535,133.310684 
z"/>
<path fill="#000000" opacity="1.000000" stroke="none" 
	d="
M79.470528,161.281097 
	C88.790260,164.050812 95.848244,173.282104 95.140549,182.081863 
	C94.622734,188.520645 94.983498,195.038834 95.124039,201.517914 
	C95.189262,204.524780 94.462593,206.097153 90.993744,206.050720 
	C79.361320,205.895020 67.724968,205.931030 56.091381,206.034744 
	C53.161427,206.060867 51.896797,205.150909 51.961624,202.052139 
	C52.114552,194.742218 51.767864,187.416992 52.066425,180.116058 
	C52.582447,167.497375 65.541573,158.523743 79.470528,161.281097 
M79.438881,177.134995 
	C72.775604,172.974960 65.940758,175.141769 66.255119,181.634460 
	C66.379715,184.208038 68.501251,187.689133 70.715088,188.854507 
	C72.648796,189.872406 76.457726,188.954926 78.602341,187.584488 
	C82.320404,185.208603 81.430008,181.358627 79.438881,177.134995 
z"/>
<path fill="#000000" opacity="1.000000" stroke="none" 
	d="
M148.720276,59.145660 
	C143.068649,51.163395 142.816727,43.008591 147.595581,35.174599 
	C152.983017,26.342978 161.538406,23.021517 171.441147,25.222399 
	C180.600677,27.258104 189.005417,35.916046 188.005920,48.134224 
	C187.136673,58.760502 178.205902,67.561737 168.088745,68.059837 
	C160.100464,68.453140 153.951584,65.372017 148.720276,59.145660 
M159.139526,44.052803 
	C159.866074,46.746277 159.832245,50.109901 161.485947,51.986248 
	C164.440964,55.339130 169.615967,54.504059 172.318390,51.067810 
	C175.123123,47.501507 174.181000,42.437737 170.221893,39.799389 
	C166.864807,37.562233 162.020706,39.115623 159.139526,44.052803 
z"/>
<path fill="#000000" opacity="1.000000" stroke="none" 
	d="
M78.000000,235.001999 
	C63.848671,235.001526 50.194221,234.836914 36.547817,235.095901 
	C32.186352,235.178665 30.717802,233.955124 30.906105,229.499954 
	C31.320257,219.701294 30.001268,221.048996 39.531940,221.021042 
	C63.005367,220.952194 86.480438,221.128235 109.951675,220.891785 
	C114.739632,220.843567 116.788780,222.137726 116.022644,226.998825 
	C115.869019,227.973602 115.885521,229.008484 116.018356,229.989273 
	C116.553261,233.938766 114.869179,235.156937 110.961884,235.076538 
	C100.145325,234.853943 89.321159,235.001038 78.000000,235.001999 
z"/>
<path fill="#A1D1FC" opacity="1.000000" stroke="none" 
	d="
M209.893997,54.805809 
	C207.125885,54.832935 204.829926,54.832935 202.046555,54.832935 
	C202.269485,51.886311 202.639084,49.134834 202.639297,46.383331 
	C202.639526,43.764305 202.254074,41.145241 201.967117,37.663902 
	C229.322418,39.261959 256.296783,40.837765 283.589630,42.432178 
	C283.589630,45.122433 283.589630,47.512157 283.589630,50.310558 
	C259.173584,51.800434 234.769867,53.289555 209.893997,54.805809 
z"/>
<path fill="#000000" opacity="1.000000" stroke="none" 
	d="
M302.259308,37.246078 
	C308.727203,32.034653 315.903656,32.444466 320.963867,38.035488 
	C325.550629,43.103409 325.208344,50.425457 320.151184,55.420784 
	C315.267792,60.244469 307.399109,60.358215 302.206726,55.680183 
	C296.889374,50.889561 296.808777,43.985989 302.259308,37.246078 
z"/>
<path fill="#000000" opacity="1.000000" stroke="none" 
	d="
M281.195587,327.392029 
	C263.924988,331.180206 248.404633,328.405334 234.193771,318.173065 
	C222.852448,310.007050 212.919846,293.321777 213.090546,281.283508 
	C249.124603,281.283508 285.162994,281.283508 321.191193,281.283508 
	C321.875671,296.320404 306.776855,320.742096 281.195587,327.392029 
z"/>
<path fill="#A1D0FB" opacity="1.000000" stroke="none" 
	d="
M261.203430,266.890625 
	C258.211670,267.149200 256.529297,266.600372 256.769409,263.487671 
	C256.973145,260.846985 256.712219,258.171265 256.901184,255.528488 
	C257.291016,250.076248 261.203522,246.195923 266.438812,245.861298 
	C271.988403,245.506546 276.721771,248.833420 277.514954,254.395554 
	C278.065674,258.257629 277.620880,262.261658 277.620880,266.891327 
	C272.177460,266.891327 266.929260,266.891327 261.203430,266.890625 
z"/>
<path fill="#1F4571" opacity="1.000000" stroke="none" 
	d="
M79.652954,177.478607 
	C81.430008,181.358627 82.320404,185.208603 78.602341,187.584488 
	C76.457726,188.954926 72.648796,189.872406 70.715088,188.854507 
	C68.501251,187.689133 66.379715,184.208038 66.255119,181.634460 
	C65.940758,175.141769 72.775604,172.974960 79.652954,177.478607 
z"/>
<path fill="#1F4571" opacity="1.000000" stroke="none" 
	d="
M159.261795,43.663826 
	C162.020706,39.115623 166.864807,37.562233 170.221893,39.799389 
	C174.181000,42.437737 175.123123,47.501507 172.318390,51.067810 
	C169.615967,54.504059 164.440964,55.339130 161.485947,51.986248 
	C159.832245,50.109901 159.866074,46.746277 159.261795,43.663826 
z"/>
</svg>